<svg width="332" height="226" viewBox="0 0 332 226" fill="none" xmlns="http://www.w3.org/2000/svg">
<path d="M55.8909 25.5648H37.1009V201.575H55.8909V225.301H6.48438V1.83923H55.8909V25.5648ZM167.305 128.302H143.761V188.333H112.703V27.6615H166.641C175.557 27.6615 183.625 28.7283 190.847 30.8617C198.068 32.9216 204.221 35.9746 209.306 40.0209C214.464 44.0671 218.405 49.1064 221.132 55.1391C223.932 61.1716 225.332 68.1605 225.332 76.1055C225.332 81.8444 224.632 87.0304 223.232 91.6656C221.906 96.2263 219.953 100.346 217.374 104.025C214.869 107.63 211.811 110.793 208.2 113.515C204.663 116.237 200.684 118.591 196.263 120.578L230.858 186.899V188.333H197.589L167.305 128.302ZM143.761 103.142H166.752C175.52 103.142 182.263 100.935 186.979 96.5209C191.768 92.0333 194.163 85.9267 194.163 78.2028C194.163 70.1837 191.842 63.9671 187.2 59.5531C182.557 55.0655 175.704 52.8217 166.641 52.8217H143.761V103.142ZM278.386 1.83923H327.903V225.301H278.386V201.575H297.286V25.5648H278.386V1.83923Z" fill="#64B5F6"/>
</svg>
