<svg width="271" height="264" viewBox="0 0 271 264" fill="none" xmlns="http://www.w3.org/2000/svg">
    <path d="M119.25 222.403V170.737C119.248 168.472 118.65 166.247 117.516 164.286C116.383 162.325 114.753 160.696 112.792 159.564L67.5833 133.731C65.6198 132.597 63.3923 132 61.125 132C58.8577 132 56.6302 132.597 54.6667 133.731L9.45833 159.564C7.4967 160.696 5.86737 162.325 4.73381 164.286C3.60026 166.247 3.00232 168.472 3 170.737V222.403C3.00232 224.669 3.60026 226.893 4.73381 228.854C5.86737 230.815 7.4967 232.444 9.45833 233.576L54.6667 259.41C56.6302 260.543 58.8577 261.14 61.125 261.14C63.3923 261.14 65.6198 260.543 67.5833 259.41L112.792 233.576C114.753 232.444 116.383 230.815 117.516 228.854C118.65 226.893 119.248 224.669 119.25 222.403Z" fill="white" stroke="white" stroke-width="5" stroke-linecap="round" stroke-linejoin="round"/>
    <g filter="url(#filter0_d)">
        <g clip-path="url(#clip0)">
            <path d="M48.6511 215.14C48.6511 215.14 45.6092 216.893 50.8158 217.486C57.1235 218.199 60.3472 218.096 67.2983 216.793C67.2983 216.793 69.1258 217.928 71.678 218.911C56.0956 225.528 36.4119 218.528 48.6511 215.14Z" fill="#5382A1"/>
            <path d="M46.747 206.506C46.747 206.506 43.3353 209.008 48.5458 209.542C55.2838 210.231 60.6049 210.287 69.8126 208.531C69.8126 208.531 71.0861 209.81 73.0887 210.509C54.2486 215.967 33.2641 210.94 46.747 206.506Z" fill="#5382A1"/>
            <path d="M62.7992 191.861C66.6387 196.24 61.7904 200.181 61.7904 200.181C61.7904 200.181 71.5396 195.195 67.0623 188.951C62.8805 183.129 59.6737 180.236 77.0341 170.261C77.0341 170.261 49.7841 177.004 62.7992 191.861Z" fill="#E76F00"/>
            <path d="M83.4081 221.526C83.4081 221.526 85.6591 223.364 80.9291 224.785C71.9347 227.485 43.4934 228.3 35.5926 224.893C32.7524 223.669 38.0785 221.97 39.7539 221.614C41.5012 221.238 42.4997 221.308 42.4997 221.308C39.3411 219.104 22.0842 225.636 33.734 227.507C65.5047 232.612 91.649 225.209 83.4081 221.526Z" fill="#5382A1"/>
            <path d="M50.114 197.561C50.114 197.561 35.6469 200.965 44.9908 202.201C48.9361 202.725 56.8009 202.606 64.1268 201.998C70.1139 201.498 76.1257 200.434 76.1257 200.434C76.1257 200.434 74.0145 201.33 72.4872 202.363C57.7962 206.191 29.4159 204.41 37.5862 200.495C44.4959 197.186 50.114 197.561 50.114 197.561Z" fill="#5382A1"/>
            <path d="M76.066 211.932C91.0001 204.244 84.0952 196.856 79.2756 197.851C78.0943 198.095 77.5676 198.306 77.5676 198.306C77.5676 198.306 78.0062 197.625 78.8437 197.331C88.3784 194.01 95.7111 207.125 75.7659 212.32C75.7659 212.32 75.9969 212.115 76.066 211.932Z" fill="#5382A1"/>
            <path d="M67.062 154.155C67.062 154.155 75.3327 162.351 59.2175 174.955C46.2948 185.066 56.2708 190.83 59.2122 197.417C51.669 190.674 46.1333 184.739 49.8471 179.215C55.298 171.106 70.399 167.174 67.062 154.155Z" fill="#E76F00"/>
            <path d="M51.5814 232.765C65.9163 233.674 87.9291 232.261 88.4504 225.541C88.4504 225.541 87.4483 228.088 76.6034 230.111C64.3683 232.393 49.2781 232.126 40.3279 230.664C40.3281 230.664 42.1601 232.167 51.5814 232.765Z" fill="#5382A1"/>
        </g>
    </g>
    <path d="M193.25 93.4034V41.7368C193.248 39.4716 192.65 37.247 191.516 35.2859C190.383 33.3249 188.753 31.6964 186.792 30.5638L141.583 4.7305C139.62 3.59683 137.392 3 135.125 3C132.858 3 130.63 3.59683 128.667 4.7305L83.4583 30.5638C81.4967 31.6964 79.8674 33.3249 78.7338 35.2859C77.6003 37.247 77.0023 39.4716 77 41.7368V93.4034C77.0023 95.6685 77.6003 97.8932 78.7338 99.8542C79.8674 101.815 81.4967 103.444 83.4583 104.576L128.667 130.41C130.63 131.543 132.858 132.14 135.125 132.14C137.392 132.14 139.62 131.543 141.583 130.41L186.792 104.576C188.753 103.444 190.383 101.815 191.516 99.8542C192.65 97.8932 193.248 95.6685 193.25 93.4034Z" fill="white" stroke="white" stroke-width="5" stroke-linecap="round" stroke-linejoin="round"/>
    <path d="M134.237 31C115.705 31 116.862 39.0786 116.862 39.0786L116.883 47.448H134.567V49.9609H109.859C109.859 49.9609 98 48.609 98 67.4058C98 86.2025 108.35 85.536 108.35 85.536H114.528V76.8135C114.528 76.8135 114.195 66.4089 124.713 66.4089C135.231 66.4089 142.253 66.4089 142.253 66.4089C142.253 66.4089 152.107 66.569 152.107 56.835C152.107 47.101 152.107 40.74 152.107 40.74C152.107 40.74 153.604 31 134.237 31ZM124.486 36.628C126.245 36.628 127.667 38.0576 127.667 39.8263C127.667 41.595 126.245 43.0245 124.486 43.0245C122.726 43.0245 121.304 41.595 121.304 39.8263C121.304 38.0576 122.726 36.628 124.486 36.628Z" fill="url(#paint0_linear)"/>
    <path d="M134.763 104C153.295 104 152.138 95.9214 152.138 95.9214L152.117 87.552H134.432V85.0391H159.141C159.141 85.0391 171 86.391 171 67.5942C171 48.7975 160.649 49.464 160.649 49.464H154.472V58.1865C154.472 58.1865 154.805 68.5911 144.287 68.5911C133.769 68.5911 126.747 68.5911 126.747 68.5911C126.747 68.5911 116.893 68.431 116.893 78.165C116.893 87.899 116.893 94.26 116.893 94.26C116.893 94.26 115.396 104 134.763 104ZM144.514 98.372C142.755 98.372 141.333 96.9424 141.333 95.1737C141.333 93.405 142.755 91.9755 144.514 91.9755C146.274 91.9755 147.696 93.405 147.696 95.1737C147.696 96.9424 146.274 98.372 144.514 98.372Z" fill="url(#paint1_linear)"/>
    <path d="M268.25 222.403V170.737C268.248 168.472 267.65 166.247 266.516 164.286C265.383 162.325 263.753 160.696 261.792 159.564L216.583 133.731C214.62 132.597 212.392 132 210.125 132C207.858 132 205.63 132.597 203.667 133.731L158.458 159.564C156.497 160.696 154.867 162.325 153.734 164.286C152.6 166.247 152.002 168.472 152 170.737V222.403C152.002 224.669 152.6 226.893 153.734 228.854C154.867 230.815 156.497 232.444 158.458 233.576L203.667 259.41C205.63 260.543 207.858 261.14 210.125 261.14C212.392 261.14 214.62 260.543 216.583 259.41L261.792 233.576C263.753 232.444 265.383 230.815 266.516 228.854C267.65 226.893 268.248 224.669 268.25 222.403Z" fill="white" stroke="white" stroke-width="5" stroke-linecap="round" stroke-linejoin="round"/>
    <path d="M176 163H244V231H176V163Z" fill="#F7DF1E"/>
    <path d="M193.88 219.826L199.083 216.676C200.087 218.456 201.001 219.962 203.191 219.962C205.291 219.962 206.615 219.141 206.615 215.946V194.219H213.005V216.037C213.005 222.655 209.125 225.668 203.465 225.668C198.353 225.668 195.386 223.02 193.879 219.825L193.88 219.826ZM216.476 219.141L221.679 216.128C223.049 218.365 224.829 220.008 227.978 220.008C230.626 220.008 232.315 218.685 232.315 216.859C232.315 214.668 230.58 213.892 227.659 212.614L226.062 211.929C221.451 209.966 218.393 207.501 218.393 202.298C218.393 197.505 222.045 193.853 227.751 193.853C231.813 193.853 234.734 195.268 236.834 198.966L231.858 202.161C230.762 200.198 229.576 199.423 227.75 199.423C225.879 199.423 224.692 200.609 224.692 202.161C224.692 204.078 225.879 204.855 228.617 206.041L230.215 206.726C235.647 209.054 238.705 211.427 238.705 216.768C238.705 222.519 234.186 225.669 228.115 225.669C222.181 225.669 218.347 222.839 216.476 219.141" fill="black"/>
    <defs>
        <filter id="filter0_d" x="25.625" y="154.07" width="67" height="87" filterUnits="userSpaceOnUse" color-interpolation-filters="sRGB">
            <feFlood flood-opacity="0" result="BackgroundImageFix"/>
            <feColorMatrix in="SourceAlpha" type="matrix" values="0 0 0 0 0 0 0 0 0 0 0 0 0 0 0 0 0 0 127 0"/>
            <feOffset dy="4"/>
            <feGaussianBlur stdDeviation="2"/>
            <feColorMatrix type="matrix" values="0 0 0 0 1 0 0 0 0 1 0 0 0 0 1 0 0 0 0.25 0"/>
            <feBlend mode="normal" in2="BackgroundImageFix" result="effect1_dropShadow"/>
            <feBlend mode="normal" in="SourceGraphic" in2="effect1_dropShadow" result="shape"/>
        </filter>
        <linearGradient id="paint0_linear" x1="105.015" y1="37.3808" x2="141.301" y2="73.5981" gradientUnits="userSpaceOnUse">
            <stop stop-color="#387EB8"/>
            <stop offset="1" stop-color="#366994"/>
        </linearGradient>
        <linearGradient id="paint1_linear" x1="127.22" y1="60.5412" x2="166.182" y2="97.6737" gradientUnits="userSpaceOnUse">
            <stop stop-color="#FFE052"/>
            <stop offset="1" stop-color="#FFC331"/>
        </linearGradient>
        <clipPath id="clip0">
            <rect x="29.625" y="154.07" width="59" height="79" fill="white"/>
        </clipPath>
    </defs>
</svg>
