<svg width="146" height="162" viewBox="0 0 146 162" fill="none" xmlns="http://www.w3.org/2000/svg">
    <path d="M143.25 112.067V49.734C143.247 47.0013 142.526 44.3173 141.158 41.9514C139.791 39.5855 137.825 37.6208 135.458 36.2544L80.9167 5.08777C78.5477 3.72005 75.8604 3 73.125 3C70.3895 3 67.7023 3.72005 65.3333 5.08777L10.7917 36.2544C8.42505 37.6208 6.45935 39.5855 5.09176 41.9514C3.72418 44.3173 3.0028 47.0013 3 49.734V112.067C3.0028 114.8 3.72418 117.484 5.09176 119.85C6.45935 122.216 8.42505 124.181 10.7917 125.547L65.3333 156.714C67.7023 158.081 70.3895 158.801 73.125 158.801C75.8604 158.801 78.5477 158.081 80.9167 156.714L135.458 125.547C137.825 124.181 139.791 122.216 141.158 119.85C142.526 117.484 143.247 114.8 143.25 112.067Z" fill="#1093EB" stroke="#1093EB" stroke-width="5" stroke-linecap="round" stroke-linejoin="round"/>
    <path d="M58 99.875L73.5 115.375L89 99.875" stroke="white" stroke-width="5" stroke-linecap="round" stroke-linejoin="round"/>
    <path d="M73.5 80.5V115.375" stroke="white" stroke-width="5" stroke-linecap="round" stroke-linejoin="round"/>
    <path d="M107.91 104.099C111.279 101.73 113.805 98.3488 115.122 94.4467C116.44 90.5445 116.479 86.3242 115.235 82.3981C113.991 78.4719 111.529 75.0443 108.205 72.6127C104.881 70.181 100.868 68.8718 96.7498 68.875H91.8673C90.7019 64.333 88.5212 60.1146 85.4895 56.5373C82.4579 52.96 78.6541 50.1171 74.3648 48.2226C70.0754 46.3281 65.4121 45.4313 60.726 45.5999C56.0399 45.7684 51.4531 46.9978 47.3109 49.1955C43.1686 51.3932 39.579 54.502 36.8121 58.2878C34.0452 62.0736 32.1732 66.4378 31.337 71.0518C30.5008 75.6657 30.7222 80.4093 31.9846 84.9253C33.2469 89.4413 35.5173 93.6121 38.6248 97.1237" stroke="white" stroke-width="5" stroke-linecap="round" stroke-linejoin="round"/>
</svg>
