<svg width="570" height="88" viewBox="0 0 570 88" fill="none" xmlns="http://www.w3.org/2000/svg">
    <path d="M2.43842 86.7735C1.70693 86.7735 1.09742 86.529 0.60976 86.0402C0.203374 85.5513 0 84.981 0 84.3292V3.66649C0 3.01467 0.243842 2.44433 0.731505 1.95546C1.21917 1.46659 1.7882 1.22216 2.43842 1.22216H48.4007C49.0509 1.22216 49.6197 1.46659 50.1074 1.95546C50.595 2.44433 50.8389 3.01467 50.8389 3.66649C50.8389 4.39978 50.595 5.01087 50.1074 5.49973C49.6197 5.90712 49.0509 6.11081 48.4007 6.11081H4.51098L4.87663 5.62194V40.8202L4.38903 39.8425H42.9143C43.5645 39.8425 44.1335 40.0869 44.6212 40.5758C45.1088 41.0646 45.3527 41.635 45.3527 42.2868C45.3527 43.0201 45.1088 43.6312 44.6212 44.12C44.1335 44.5274 43.5645 44.7311 42.9143 44.7311H4.14513L4.87663 43.7534V84.3292C4.87663 84.981 4.63279 85.5513 4.14513 86.0402C3.73874 86.529 3.16991 86.7735 2.43842 86.7735Z" fill="#F0F7FF"/>
    <path d="M71.6112 1.22216H117.573C118.224 1.22216 118.792 1.46659 119.28 1.95546C119.768 2.44433 120.012 3.01467 120.012 3.66649C120.012 4.39978 119.768 5.01087 119.28 5.49973C118.792 5.90712 118.224 6.11081 117.573 6.11081H73.0742L74.2933 4.03313V41.9201L72.8303 40.2091H112.087C112.737 40.2091 113.306 40.4535 113.794 40.9424C114.282 41.4313 114.525 42.0016 114.525 42.6534C114.525 43.3867 114.282 43.9978 113.794 44.4867C113.306 44.8941 112.737 45.0978 112.087 45.0978H73.0742L74.2933 43.7534V82.4959L73.8057 81.8848H117.573C118.224 81.8848 118.792 82.1293 119.28 82.6181C119.768 83.107 120.012 83.6773 120.012 84.3292C120.012 85.0624 119.768 85.6735 119.28 86.1624C118.792 86.5698 118.224 86.7735 117.573 86.7735H71.6112C70.961 86.7735 70.392 86.529 69.9043 86.0402C69.4166 85.5513 69.1728 84.981 69.1728 84.3292V3.66649C69.1728 3.01467 69.4166 2.44433 69.9043 1.95546C70.392 1.46659 70.961 1.22216 71.6112 1.22216Z" fill="#F0F7FF"/>
    <path d="M166.02 7.45518L135.176 85.1847C135.013 85.6735 134.729 86.0809 134.322 86.4068C133.916 86.6513 133.469 86.7735 132.981 86.7735C132.169 86.7735 131.559 86.5698 131.153 86.1624C130.746 85.755 130.502 85.2661 130.421 84.6958C130.34 84.3699 130.381 83.9625 130.543 83.4736L163.338 2.56654C163.582 1.91472 163.867 1.50733 164.192 1.34437C164.598 1.09994 165.086 0.977731 165.655 0.977731C166.305 0.977731 166.833 1.14069 167.24 1.4666C167.646 1.71103 167.93 2.07767 168.093 2.56654L200.888 83.4736C200.97 83.7181 201.01 84.044 201.01 84.4514C201.01 85.1847 200.766 85.755 200.279 86.1624C199.791 86.5698 199.182 86.7735 198.45 86.7735C197.881 86.7735 197.353 86.6513 196.865 86.4068C196.459 86.0809 196.174 85.6735 196.012 85.1847L164.192 6.47746L166.02 7.45518ZM143.466 60.2526L145.173 55.3639H184.674L185.893 60.2526H143.466Z" fill="#F0F7FF"/>
    <path d="M235.587 86.7735C234.855 86.7735 234.246 86.529 233.758 86.0402C233.351 85.5513 233.148 84.981 233.148 84.3292V4.15535H238.025V84.3292C238.025 84.981 237.781 85.5513 237.293 86.0402C236.806 86.529 236.237 86.7735 235.587 86.7735ZM205.961 5.86637C205.311 5.86637 204.742 5.66268 204.254 5.25529C203.767 4.76643 203.523 4.19609 203.523 3.54427C203.523 2.89245 203.767 2.36285 204.254 1.95546C204.742 1.46659 205.311 1.22216 205.961 1.22216H265.212C265.862 1.22216 266.431 1.46659 266.919 1.95546C267.407 2.36285 267.65 2.89245 267.65 3.54427C267.65 4.27756 267.407 4.84791 266.919 5.25529C266.431 5.66268 265.862 5.86637 265.212 5.86637H205.961Z" fill="#F0F7FF"/>
    <path d="M344.421 1.22216C345.152 1.22216 345.721 1.46659 346.128 1.95546C346.616 2.44433 346.859 3.01467 346.859 3.66649V56.4639C346.859 62.2488 345.437 67.5448 342.592 72.352C339.748 77.0777 335.968 80.8664 331.254 83.7181C326.54 86.5698 321.298 87.9956 315.527 87.9956C309.756 87.9956 304.473 86.5698 299.678 83.7181C294.964 80.8664 291.185 77.0777 288.34 72.352C285.495 67.5448 284.073 62.2488 284.073 56.4639V3.66649C284.073 3.01467 284.276 2.44433 284.683 1.95546C285.17 1.46659 285.82 1.22216 286.633 1.22216C287.365 1.22216 287.974 1.46659 288.462 1.95546C288.949 2.44433 289.193 3.01467 289.193 3.66649V56.4639C289.193 61.3525 290.372 65.8338 292.729 69.9076C295.086 73.9 298.256 77.1184 302.238 79.5627C306.302 81.9256 310.732 83.107 315.527 83.107C320.404 83.107 324.833 81.9256 328.816 79.5627C332.798 77.1184 335.968 73.9 338.325 69.9076C340.764 65.8338 341.983 61.3525 341.983 56.4639V3.66649C341.983 3.01467 342.186 2.44433 342.592 1.95546C343.08 1.46659 343.689 1.22216 344.421 1.22216Z" fill="#F0F7FF"/>
    <path d="M373.784 86.7735C372.971 86.7735 372.321 86.529 371.833 86.0402C371.427 85.5513 371.223 84.981 371.223 84.3292V3.66649C371.223 3.01467 371.467 2.44433 371.955 1.95546C372.443 1.46659 373.012 1.22216 373.662 1.22216H405.847C410.643 1.22216 414.828 2.19989 418.405 4.15535C422.062 6.02933 424.907 8.63661 426.939 11.9772C428.971 15.3178 429.987 19.1065 429.987 23.3433C429.987 27.0912 429.296 30.4726 427.914 33.4872C426.614 36.5019 424.744 39.0277 422.306 41.0646C419.949 43.0201 417.226 44.4459 414.138 45.3422L408.53 44.3645C411.781 44.3645 414.869 45.22 417.795 46.931C420.721 48.5606 423.119 51.0049 424.988 54.264C426.858 57.4416 427.792 61.3525 427.792 65.9967C427.792 69.9891 427.955 73.0445 428.28 75.1629C428.686 77.1999 429.174 78.7072 429.743 79.6849C430.393 80.6627 431.125 81.4367 431.937 82.007C432.425 82.333 432.791 82.7403 433.035 83.2292C433.278 83.7181 433.319 84.2884 433.156 84.9402C432.994 85.4291 432.709 85.8365 432.303 86.1624C431.978 86.4068 431.612 86.5698 431.206 86.6513C430.799 86.7327 430.353 86.6513 429.865 86.4068C428.727 85.755 427.589 84.7773 426.451 83.4736C425.395 82.17 424.501 80.1738 423.769 77.485C423.038 74.7963 422.672 70.9669 422.672 65.9967C422.672 62.1673 422.062 59.1119 420.843 56.8305C419.705 54.5491 418.201 52.7974 416.332 51.5752C414.544 50.3531 412.593 49.5383 410.48 49.1309C408.448 48.7235 406.579 48.5198 404.872 48.5198H375.247L376.344 47.0532V84.3292C376.344 84.981 376.1 85.5513 375.612 86.0402C375.125 86.529 374.515 86.7735 373.784 86.7735ZM375.125 43.6312H406.457C409.708 43.3053 412.715 42.3275 415.479 40.698C418.242 39.0684 420.477 36.7871 422.184 33.8539C423.972 30.9207 424.866 27.4579 424.866 23.4655C424.866 18.4954 423.078 14.3808 419.502 11.1217C416.007 7.7811 411.252 6.11081 405.238 6.11081H375.734L376.344 5.25529V44.9755L375.125 43.6312Z" fill="#F0F7FF"/>
    <path d="M454.621 1.22216H500.584C501.234 1.22216 501.803 1.46659 502.29 1.95546C502.778 2.44433 503.022 3.01467 503.022 3.66649C503.022 4.39978 502.778 5.01087 502.29 5.49973C501.803 5.90712 501.234 6.11081 500.584 6.11081H456.084L457.303 4.03313V41.9201L455.84 40.2091H495.097C495.747 40.2091 496.316 40.4535 496.804 40.9424C497.292 41.4313 497.536 42.0016 497.536 42.6534C497.536 43.3867 497.292 43.9978 496.804 44.4867C496.316 44.8941 495.747 45.0978 495.097 45.0978H456.084L457.303 43.7534V82.4959L456.816 81.8848H500.584C501.234 81.8848 501.803 82.1293 502.29 82.6181C502.778 83.107 503.022 83.6773 503.022 84.3292C503.022 85.0624 502.778 85.6735 502.29 86.1624C501.803 86.5698 501.234 86.7735 500.584 86.7735H454.621C453.971 86.7735 453.402 86.529 452.914 86.0402C452.427 85.5513 452.183 84.981 452.183 84.3292V3.66649C452.183 3.01467 452.427 2.44433 452.914 1.95546C453.402 1.46659 453.971 1.22216 454.621 1.22216Z" fill="#F0F7FF"/>
    <path d="M543.666 87.9956C537.327 88.0771 531.881 87.0179 527.33 84.818C522.778 82.6181 518.389 79.3998 514.163 75.1629C514 75 513.838 74.7963 513.675 74.5519C513.512 74.2259 513.431 73.8186 513.431 73.3297C513.431 72.6779 513.716 72.0668 514.285 71.4965C514.854 70.8446 515.463 70.5187 516.113 70.5187C516.845 70.5187 517.536 70.8854 518.186 71.6187C521.437 75.3666 525.216 78.2183 529.524 80.1738C533.913 82.1293 538.465 83.107 543.179 83.107C547.324 83.107 551.022 82.4552 554.273 81.1515C557.524 79.7664 560.084 77.8517 561.954 75.4074C563.823 72.8816 564.758 69.9484 564.758 66.6078C564.676 62.4525 563.539 59.1119 561.344 56.5861C559.15 54.0603 556.305 51.9826 552.81 50.3531C549.396 48.7235 545.78 47.2162 541.96 45.8311C538.952 44.6904 535.986 43.509 533.06 42.2868C530.134 41.0646 527.492 39.598 525.135 37.887C522.778 36.0945 520.909 33.8946 519.527 31.2873C518.145 28.5986 517.454 25.2987 517.454 21.3878C517.454 17.3954 518.511 13.8104 520.624 10.6328C522.819 7.37371 525.907 4.80717 529.89 2.93319C533.954 0.977728 538.749 0 544.276 0C548.909 0 553.42 0.855514 557.809 2.56654C562.198 4.19609 565.652 6.68115 568.171 10.0217C568.984 11.1624 569.39 12.0179 569.39 12.5883C569.39 13.1586 569.065 13.729 568.415 14.2993C567.846 14.8696 567.196 15.1548 566.464 15.1548C565.814 15.1548 565.286 14.9104 564.88 14.4215C563.417 12.466 561.628 10.7958 559.515 9.41065C557.483 7.94405 555.167 6.84411 552.566 6.11081C549.965 5.29603 547.202 4.88865 544.276 4.88865C540.293 4.88865 536.676 5.54047 533.425 6.8441C530.174 8.14775 527.573 10.0217 525.623 12.466C523.672 14.8289 522.697 17.7621 522.697 21.2656C522.697 25.0136 523.753 28.1097 525.867 30.554C528.061 32.9169 530.825 34.9131 534.157 36.5426C537.489 38.0907 540.903 39.5166 544.398 40.8202C547.486 41.8794 550.534 43.0608 553.541 44.3645C556.63 45.5866 559.393 47.1347 561.832 49.0087C564.351 50.8827 566.343 53.2455 567.805 56.0972C569.268 58.9489 570 62.5339 570 66.8522C570 70.6002 568.903 74.063 566.708 77.2406C564.595 80.4182 561.588 82.9848 557.687 84.9402C553.785 86.8957 549.112 87.9142 543.666 87.9956Z" fill="#F0F7FF"/>
</svg>
