<svg width="22" height="26" viewBox="0 0 22 26" fill="none" xmlns="http://www.w3.org/2000/svg">
    <path d="M15.7777 20.1164C15.7777 18.5475 15.2777 17.5388 14.6665 17.0345C18.2221 16.6423 21.9999 15.2414 21.9999 8.85349C21.9999 7.06039 21.3888 5.54746 20.3332 4.42677C20.4999 4.03453 21.0554 2.29746 20.1665 0.0560784C20.1665 0.0560784 18.8332 -0.392197 15.7777 1.73711C14.4999 1.34487 13.111 1.17677 11.7777 1.17677C10.3888 1.17677 9.05543 1.34487 7.77765 1.73711C4.7221 -0.392197 3.38876 0.0560784 3.38876 0.0560784C2.49987 2.29746 3.05543 3.97849 3.2221 4.42677C2.2221 5.60349 1.55543 7.06039 1.55543 8.85349C1.55543 15.1854 5.27765 16.6423 8.83321 17.0345C8.38876 17.4268 7.94432 18.1552 7.83321 19.2759C6.94432 19.7242 4.61099 20.4526 3.16654 17.875C3.16654 17.875 2.33321 16.3061 0.722096 16.194C0.722096 16.194 -0.833459 16.194 0.610985 17.2026C0.610985 17.2026 1.66654 17.7069 2.38876 19.6121C2.38876 19.6121 3.33321 22.5819 7.77765 21.5733C7.77765 22.694 7.77765 24.6552 7.7221 25.4957C8.99987 25.8319 10.3332 26 11.7221 26C13.111 26 14.4443 25.8319 15.7221 25.4957C15.8332 24.6552 15.7777 22.1337 15.7777 20.1164Z" fill="#333333"/>
</svg>
