<svg width="147" height="161" viewBox="0 0 147 161" fill="none" xmlns="http://www.w3.org/2000/svg">
    <path d="M143.625 111.667V49.3335C143.622 46.6008 142.901 43.9168 141.533 41.5509C140.166 39.185 138.2 37.2203 135.833 35.8539L81.2917 4.68726C78.9227 3.31953 76.2354 2.59949 73.5 2.59949C70.7645 2.59949 68.0773 3.31953 65.7083 4.68726L11.1667 35.8539C8.80005 37.2203 6.83435 39.185 5.46676 41.5509C4.09918 43.9168 3.3778 46.6008 3.375 49.3335V111.667C3.3778 114.4 4.09918 117.084 5.46676 119.449C6.83435 121.815 8.80005 123.78 11.1667 125.146L65.7083 156.313C68.0773 157.681 70.7645 158.401 73.5 158.401C76.2354 158.401 78.9227 157.681 81.2917 156.313L135.833 125.146C138.2 123.78 140.166 121.815 141.533 119.449C142.901 117.084 143.622 114.4 143.625 111.667Z" fill="#1093EB" stroke="#1093EB" stroke-width="5" stroke-linecap="round" stroke-linejoin="round"/>
    <path d="M89.4934 64.4246C95.9482 64.4246 101.181 59.1919 101.181 52.7371C101.181 46.2822 95.9482 41.0496 89.4934 41.0496C83.0386 41.0496 77.8059 46.2822 77.8059 52.7371C77.8059 59.1919 83.0386 64.4246 89.4934 64.4246Z" stroke="white" stroke-width="4" stroke-linecap="round" stroke-linejoin="round"/>
    <path d="M42.7434 91.6954C49.1982 91.6954 54.4309 86.4628 54.4309 80.0079C54.4309 73.5531 49.1982 68.3204 42.7434 68.3204C36.2886 68.3204 31.0559 73.5531 31.0559 80.0079C31.0559 86.4628 36.2886 91.6954 42.7434 91.6954Z" stroke="white" stroke-width="4" stroke-linecap="round" stroke-linejoin="round"/>
    <path d="M89.4934 118.966C95.9482 118.966 101.181 113.734 101.181 107.279C101.181 100.824 95.9482 95.5913 89.4934 95.5913C83.0386 95.5913 77.8059 100.824 77.8059 107.279C77.8059 113.734 83.0386 118.966 89.4934 118.966Z" stroke="white" stroke-width="4" stroke-linecap="round" stroke-linejoin="round"/>
    <path d="M52.834 85.8906L79.4425 101.396" stroke="white" stroke-width="4" stroke-linecap="round" stroke-linejoin="round"/>
    <path d="M79.4036 58.6199L52.834 74.1253" stroke="white" stroke-width="4" stroke-linecap="round" stroke-linejoin="round"/>
</svg>
