<svg width="24" height="24" viewBox="0 0 24 24" fill="none" xmlns="http://www.w3.org/2000/svg">
    <g clip-path="url(#clip0)">
        <path fill-rule="evenodd" clip-rule="evenodd" d="M22.672 15.226L20.24 16.037L21.081 18.552C21.411 19.571 20.872 20.679 19.851 21.008C18.701 21.333 17.703 20.687 17.388 19.782L16.548 17.264L11.535 18.941L12.375 21.458C12.766 22.661 11.941 24 10.544 24C9.664 24 8.943 23.436 8.684 22.686L7.842 20.17L5.411 20.979C4.276 21.307 3.266 20.662 2.948 19.75C2.619 18.732 3.159 17.623 4.179 17.294L6.611 16.485L4.99 11.662L2.558 12.47C1.203 12.854 0 11.88 0 10.631C0 9.814 0.509 9.049 1.327 8.785L3.76 7.976L2.918 5.461C2.588 4.441 3.129 3.332 4.15 3.003C5.17 2.674 6.28 3.212 6.611 4.232L7.453 6.747L12.464 5.07L11.625 2.553C11.222 1.315 12.109 0 13.468 0C14.287 0 15.053 0.509 15.318 1.326L16.159 3.843L18.59 3.033C19.61 2.703 20.721 3.244 21.051 4.262C21.383 5.28 20.841 6.388 19.821 6.718L17.388 7.527L19.01 12.35L21.443 11.541C22.685 11.14 24 12.025 24 13.379C24 14.198 23.49 14.962 22.672 15.226ZM13.68 8.798L8.67 10.473L10.289 15.301L15.3 13.627L13.68 8.798Z" fill="#333333" />
    </g>
    <defs>
        <clipPath id="clip0">
            <rect width="24" height="24" fill="white"/>
        </clipPath>
    </defs>
</svg>
