<svg width="1920" height="931" viewBox="0 0 1920 931" fill="none" xmlns="http://www.w3.org/2000/svg">
    <g style="mix-blend-mode:overlay" opacity="0.7">
        <mask id="mask0" mask-type="alpha" maskUnits="userSpaceOnUse" x="0" y="0" width="1920" height="931">
            <path d="M1920 0H0V799.082C306.5 875.035 524.5 926.003 960 931C1331 927.003 1586 887.527 1920 799.082V0Z" fill="url(#paint0_linear)"/>
            <path d="M1920 0H0V799.082C306.5 875.035 524.5 926.003 960 931C1331 927.003 1586 887.527 1920 799.082V0Z" fill="url(#paint1_linear)"/>
        </mask>
        <g mask="url(#mask0)">
            <rect x="-113.233" y="593.161" width="499.533" height="1219.1" transform="rotate(-120 -113.233 593.161)" fill="url(#paint2_linear)" fill-opacity="0.8"/>
            <rect x="1886.21" y="466" width="425.303" height="996.743" transform="rotate(60 1886.21 466)" fill="url(#paint3_linear)"/>
        </g>
    </g>
    <g style="mix-blend-mode:soft-light">
        <path d="M936 136L1032 63" stroke="url(#paint4_linear)" stroke-width="1.5" stroke-miterlimit="10"/>
        <path d="M419 833L465 798" stroke="url(#paint5_linear)" stroke-width="1.5" stroke-miterlimit="10"/>
        <path d="M266 212L336 159" stroke="url(#paint6_linear)" stroke-width="1.5" stroke-miterlimit="10"/>
        <path d="M248 624L376 527" stroke="url(#paint7_linear)" stroke-width="1.5" stroke-miterlimit="10"/>
        <path d="M841 877L937 804" stroke="url(#paint8_linear)" stroke-width="1.5" stroke-miterlimit="10"/>
        <path d="M1466 832L1541 775" stroke="url(#paint9_linear)" stroke-width="1.5" stroke-miterlimit="10"/>
        <path d="M1531 285L1606 228" stroke="url(#paint10_linear)" stroke-width="1.5" stroke-miterlimit="10"/>
        <path d="M1623 601L1785 478" stroke="url(#paint11_linear)" stroke-width="1.5" stroke-miterlimit="10"/>
    </g>
    <defs>
        <linearGradient id="paint0_linear" x1="-319.976" y1="-800.447" x2="198.867" y2="1269.56" gradientUnits="userSpaceOnUse">
            <stop stop-color="#0470FE"/>
            <stop offset="1" stop-color="#2FF6F5"/>
        </linearGradient>
        <linearGradient id="paint1_linear" x1="2062" y1="981.499" x2="673.362" y2="-825.762" gradientUnits="userSpaceOnUse">
            <stop stop-color="#2FF6F5"/>
            <stop offset="1" stop-color="#1D45DF"/>
        </linearGradient>
        <linearGradient id="paint2_linear" x1="218.471" y1="3596.99" x2="136.429" y2="678.812" gradientUnits="userSpaceOnUse">
            <stop stop-color="white"/>
            <stop offset="1" stop-color="white" stop-opacity="0"/>
        </linearGradient>
        <linearGradient id="paint3_linear" x1="2009.53" y1="3015.65" x2="2107.86" y2="537.867" gradientUnits="userSpaceOnUse">
            <stop stop-color="white"/>
            <stop offset="1" stop-color="white" stop-opacity="0"/>
        </linearGradient>
        <linearGradient id="paint4_linear" x1="984" y1="136" x2="984" y2="63" gradientUnits="userSpaceOnUse">
            <stop stop-color="white"/>
            <stop offset="1" stop-color="white" stop-opacity="0"/>
        </linearGradient>
        <linearGradient id="paint5_linear" x1="442" y1="833" x2="442" y2="798" gradientUnits="userSpaceOnUse">
            <stop stop-color="white"/>
            <stop offset="1" stop-color="white" stop-opacity="0"/>
        </linearGradient>
        <linearGradient id="paint6_linear" x1="301" y1="212" x2="301" y2="159" gradientUnits="userSpaceOnUse">
            <stop stop-color="white"/>
            <stop offset="1" stop-color="white" stop-opacity="0"/>
        </linearGradient>
        <linearGradient id="paint7_linear" x1="312" y1="624" x2="312" y2="527" gradientUnits="userSpaceOnUse">
            <stop stop-color="white"/>
            <stop offset="1" stop-color="white" stop-opacity="0"/>
        </linearGradient>
        <linearGradient id="paint8_linear" x1="889" y1="877" x2="889" y2="804" gradientUnits="userSpaceOnUse">
            <stop stop-color="white"/>
            <stop offset="1" stop-color="white" stop-opacity="0"/>
        </linearGradient>
        <linearGradient id="paint9_linear" x1="1503.5" y1="832" x2="1503.5" y2="775" gradientUnits="userSpaceOnUse">
            <stop stop-color="white"/>
            <stop offset="1" stop-color="white" stop-opacity="0"/>
        </linearGradient>
        <linearGradient id="paint10_linear" x1="1568.5" y1="285" x2="1568.5" y2="228" gradientUnits="userSpaceOnUse">
            <stop stop-color="white"/>
            <stop offset="1" stop-color="white" stop-opacity="0"/>
        </linearGradient>
        <linearGradient id="paint11_linear" x1="1704" y1="601" x2="1704" y2="478" gradientUnits="userSpaceOnUse">
            <stop stop-color="white"/>
            <stop offset="1" stop-color="white" stop-opacity="0"/>
        </linearGradient>
    </defs>
</svg>
